# xmcd
#
# Track frame offsets:
#	150
#	23162
#	39312
#	52853
#	65897
#	88000
#	101564
#	121992
#	143485
#	166297
#	183992
#	204202
#	219186
#	237841
#	256188
#
# Disc length: 3652 seconds
#
# Revision: 0
# Processed by: cddbd v1.5.2PL0 Copyright (c) Steve Scherf et al.
# Submitted via: EasyCDDAExtractor 16.0.9.1
#
DISCID=bf0e420f
DTITLE=Various Artist - Thien Than Ho Menh
DYEAR=1900
DGENRE=
TTITLE0=Quoc Minh - Mot Ngay Moi
TTITLE1=Dai Nhan - La La Bay Len
TTITLE2=Nam Cuong and Khoi Mi - Sao Pha Le
TTITLE3=Radio Band - Thien Than Ho Menh
TTITLE4=Thien Minh - Tim Ve Pho Xua
TTITLE5=Thuy Tien - Ngoi Nha Hanh Phuc
TTITLE6=Minh Hang - Loi Lam Cay, La Va Gio
TTITLE7=Ngo Kien Huy - Chuyen Tinh Cay Va La
TTITLE8=Quang Vinh - Dong Ho Cat
TTITLE9=Nhat Tinh Anh - Chiec O Tinh Yeu
TTITLE10=Hoa Mi - Dung De Em Khoc
TTITLE11=Chi Thien - Mua Khoc
TTITLE12=Hoang Nghiep - Ngu Say Nhe
TTITLE13=Phuong Vy and Quoc Minh - Cu Ngu Say
TTITLE14=Thu Thuy - Christmas Don't Be Late 
EXTD=
EXTT0=
EXTT1=
EXTT2=
EXTT3=
EXTT4=
EXTT5=
EXTT6=
EXTT7=
EXTT8=
EXTT9=
EXTT10=
EXTT11=
EXTT12=
EXTT13=
EXTT14=
PLAYORDER=
